<svg width="64" height="64" viewBox="0 0 64 64" fill="none" xmlns="http://www.w3.org/2000/svg">
<path d="M32 58.5C46.36 58.5 58 46.86 58 32.5C58 18.14 46.36 6.5 32 6.5C17.64 6.5 6 18.14 6 32.5C6 46.86 17.64 58.5 32 58.5Z" fill="#E8F5E8"/>
<path d="M32 54.5C44.15 54.5 54 44.65 54 32.5C54 20.35 44.15 10.5 32 10.5C19.85 10.5 10 20.35 10 32.5C10 44.65 19.85 54.5 32 54.5Z" fill="#4CAF50"/>
<path d="M28.5 40.5L20 32L23.17 28.83L28.5 34.17L40.83 21.83L44 25L28.5 40.5Z" fill="white"/>
<path d="M15 16.5H49C50.1 16.5 51 17.4 51 18.5V20.5H13V18.5C13 17.4 13.9 16.5 15 16.5Z" fill="#C1DBF6"/>
<path d="M13 20.5H51V44.5C51 45.6 50.1 46.5 49 46.5H15C13.9 46.5 13 45.6 13 44.5V20.5Z" fill="white"/>
<path d="M17 26.5H19V28.5H17V26.5ZM17 30.5H19V32.5H17V30.5ZM17 34.5H19V36.5H17V34.5ZM17 38.5H19V40.5H17V38.5Z" fill="#E0E0E0"/>
<path d="M22 26.5H35V28.5H22V26.5ZM22 30.5H40V32.5H22V30.5ZM22 34.5H37V36.5H22V34.5ZM22 38.5H33V40.5H22V38.5Z" fill="#E0E0E0"/>
<path d="M45 25.5C46.38 25.5 47.5 26.62 47.5 28C47.5 29.38 46.38 30.5 45 30.5C43.62 30.5 42.5 29.38 42.5 28C42.5 26.62 43.62 25.5 45 25.5Z" fill="#4CAF50"/>
<path d="M43.59 27.59L44.29 28.29L45.71 26.88L46.41 27.58L44.29 29.71L43.59 29.01L42.88 28.29L43.59 27.59Z" fill="white"/>
</svg>